<svg id="visual" viewBox="0 0 900 600" width="900" height="600" xmlns="http://www.w3.org/2000/svg" xmlns:xlink="http://www.w3.org/1999/xlink" version="1.1"><g stroke-width="1" stroke-linejoin="bevel"><path d="M437 243.1L516 239.1L483 163.4Z" fill="#121820" stroke="#121820"></path><path d="M516 239.1L515 171.4L483 163.4Z" fill="#1b1e22" stroke="#1b1e22"></path><path d="M515 171.4L446 107.7L483 163.4Z" fill="#191c22" stroke="#191c22"></path><path d="M483 163.4L446 107.7L437 243.1Z" fill="#00101c" stroke="#00101c"></path><path d="M437 243.1L540 305.9L516 239.1Z" fill="#0f171f" stroke="#0f171f"></path><path d="M516 239.1L661 176.4L515 171.4Z" fill="#141921" stroke="#141921"></path><path d="M318 150.4L337 266.1L437 243.1Z" fill="#121820" stroke="#121820"></path><path d="M437 243.1L485 370.9L540 305.9Z" fill="#191c22" stroke="#191c22"></path><path d="M402 379.6L485 370.9L437 243.1Z" fill="#0c151e" stroke="#0c151e"></path><path d="M337 266.1L342 312.9L437 243.1Z" fill="#04121d" stroke="#04121d"></path><path d="M446 107.7L318 150.4L437 243.1Z" fill="#0c151e" stroke="#0c151e"></path><path d="M337 266.1L319 322.9L342 312.9Z" fill="#00101c" stroke="#00101c"></path><path d="M560 399.6L599 329.9L540 305.9Z" fill="#171b21" stroke="#171b21"></path><path d="M540 305.9L667 238.1L516 239.1Z" fill="#00101c" stroke="#00101c"></path><path d="M342 312.9L402 379.6L437 243.1Z" fill="#1b1e22" stroke="#1b1e22"></path><path d="M667 238.1L661 176.4L516 239.1Z" fill="#08131e" stroke="#08131e"></path><path d="M515 171.4L562 40.7L446 107.7Z" fill="#08131e" stroke="#08131e"></path><path d="M240 213.1L319 322.9L337 266.1Z" fill="#04121d" stroke="#04121d"></path><path d="M342 312.9L319 322.9L402 379.6Z" fill="#191c22" stroke="#191c22"></path><path d="M663 98.7L562 40.7L515 171.4Z" fill="#141921" stroke="#141921"></path><path d="M446 107.7L326 74.7L318 150.4Z" fill="#0c151e" stroke="#0c151e"></path><path d="M599 329.9L667 238.1L540 305.9Z" fill="#191c22" stroke="#191c22"></path><path d="M437 0L326 74.7L446 107.7Z" fill="#121820" stroke="#121820"></path><path d="M485 370.9L560 399.6L540 305.9Z" fill="#0c151e" stroke="#0c151e"></path><path d="M599 329.9L722 339.9L667 238.1Z" fill="#1d1f23" stroke="#1d1f23"></path><path d="M422 468.6L560 399.6L485 370.9Z" fill="#0f171f" stroke="#0f171f"></path><path d="M521 0L437 0L446 107.7Z" fill="#00101c" stroke="#00101c"></path><path d="M562 40.7L521 0L446 107.7Z" fill="#04121d" stroke="#04121d"></path><path d="M734 74.7L663 98.7L764 149.4Z" fill="#0c151e" stroke="#0c151e"></path><path d="M661 176.4L663 98.7L515 171.4Z" fill="#121820" stroke="#121820"></path><path d="M562 40.7L586 0L521 0Z" fill="#141921" stroke="#141921"></path><path d="M246 134.4L240 213.1L318 150.4Z" fill="#00101c" stroke="#00101c"></path><path d="M318 150.4L240 213.1L337 266.1Z" fill="#0c151e" stroke="#0c151e"></path><path d="M663 98.7L586 0L562 40.7Z" fill="#191c22" stroke="#191c22"></path><path d="M242 114.7L246 134.4L318 150.4Z" fill="#0c151e" stroke="#0c151e"></path><path d="M326 74.7L242 114.7L318 150.4Z" fill="#191c22" stroke="#191c22"></path><path d="M246 134.4L226 160.4L240 213.1Z" fill="#00101c" stroke="#00101c"></path><path d="M274 0L242 114.7L326 74.7Z" fill="#191c22" stroke="#191c22"></path><path d="M242 114.7L226 160.4L246 134.4Z" fill="#04121d" stroke="#04121d"></path><path d="M404 496.3L422 468.6L402 379.6Z" fill="#171b21" stroke="#171b21"></path><path d="M402 379.6L422 468.6L485 370.9Z" fill="#1b1e22" stroke="#1b1e22"></path><path d="M404 496.3L402 379.6L225 432.6Z" fill="#0f171f" stroke="#0f171f"></path><path d="M437 0L315 0L326 74.7Z" fill="#191c22" stroke="#191c22"></path><path d="M422 468.6L586 463.6L560 399.6Z" fill="#0f171f" stroke="#0f171f"></path><path d="M560 399.6L586 463.6L599 329.9Z" fill="#04121d" stroke="#04121d"></path><path d="M745 397.6L722 339.9L599 329.9Z" fill="#0f171f" stroke="#0f171f"></path><path d="M667 238.1L758 220.1L661 176.4Z" fill="#121820" stroke="#121820"></path><path d="M722 339.9L758 220.1L667 238.1Z" fill="#04121d" stroke="#04121d"></path><path d="M663 98.7L693 0L586 0Z" fill="#121820" stroke="#121820"></path><path d="M776 226.1L766 214.4L758 220.1Z" fill="#0c151e" stroke="#0c151e"></path><path d="M758 220.1L764 149.4L661 176.4Z" fill="#191c22" stroke="#191c22"></path><path d="M315 0L274 0L326 74.7Z" fill="#04121d" stroke="#04121d"></path><path d="M112 195.4L149 240.1L226 160.4Z" fill="#1d1f23" stroke="#1d1f23"></path><path d="M225 432.6L402 379.6L319 322.9Z" fill="#171b21" stroke="#171b21"></path><path d="M422 468.6L554 531.3L586 463.6Z" fill="#191c22" stroke="#191c22"></path><path d="M764 149.4L663 98.7L661 176.4Z" fill="#1b1e22" stroke="#1b1e22"></path><path d="M766 214.4L764 149.4L758 220.1Z" fill="#00101c" stroke="#00101c"></path><path d="M722 339.9L776 226.1L758 220.1Z" fill="#08131e" stroke="#08131e"></path><path d="M766 214.4L776 226.1L764 149.4Z" fill="#1b1e22" stroke="#1b1e22"></path><path d="M734 74.7L693 0L663 98.7Z" fill="#0c151e" stroke="#0c151e"></path><path d="M226 160.4L149 240.1L240 213.1Z" fill="#04121d" stroke="#04121d"></path><path d="M240 213.1L153 311.9L319 322.9Z" fill="#0c151e" stroke="#0c151e"></path><path d="M135 104.7L226 160.4L242 114.7Z" fill="#171b21" stroke="#171b21"></path><path d="M586 463.6L745 397.6L599 329.9Z" fill="#1b1e22" stroke="#1b1e22"></path><path d="M722 339.9L819 307.9L776 226.1Z" fill="#0c151e" stroke="#0c151e"></path><path d="M428 563.3L554 531.3L422 468.6Z" fill="#191c22" stroke="#191c22"></path><path d="M586 463.6L647 506.3L745 397.6Z" fill="#04121d" stroke="#04121d"></path><path d="M153 311.9L225 432.6L319 322.9Z" fill="#04121d" stroke="#04121d"></path><path d="M149 240.1L153 311.9L240 213.1Z" fill="#08131e" stroke="#08131e"></path><path d="M554 531.3L647 506.3L586 463.6Z" fill="#191c22" stroke="#191c22"></path><path d="M112 195.4L127 272.1L149 240.1Z" fill="#1d1f23" stroke="#1d1f23"></path><path d="M149 240.1L127 272.1L153 311.9Z" fill="#1d1f23" stroke="#1d1f23"></path><path d="M153 311.9L151 411.6L225 432.6Z" fill="#141921" stroke="#141921"></path><path d="M404 496.3L428 563.3L422 468.6Z" fill="#1b1e22" stroke="#1b1e22"></path><path d="M390 600L428 563.3L404 496.3Z" fill="#08131e" stroke="#08131e"></path><path d="M147 0L135 104.7L242 114.7Z" fill="#171b21" stroke="#171b21"></path><path d="M745 397.6L819 307.9L722 339.9Z" fill="#191c22" stroke="#191c22"></path><path d="M900 88.7L843 35.7L764 149.4Z" fill="#04121d" stroke="#04121d"></path><path d="M647 506.3L680 507.3L745 397.6Z" fill="#141921" stroke="#141921"></path><path d="M745 397.6L843 429.6L819 307.9Z" fill="#171b21" stroke="#171b21"></path><path d="M625 600L680 507.3L647 506.3Z" fill="#171b21" stroke="#171b21"></path><path d="M625 600L647 506.3L554 531.3Z" fill="#04121d" stroke="#04121d"></path><path d="M135 104.7L112 195.4L226 160.4Z" fill="#04121d" stroke="#04121d"></path><path d="M734 74.7L776 0L693 0Z" fill="#191c22" stroke="#191c22"></path><path d="M843 35.7L776 0L734 74.7Z" fill="#1d1f23" stroke="#1d1f23"></path><path d="M843 35.7L734 74.7L764 149.4Z" fill="#0f171f" stroke="#0f171f"></path><path d="M80 293.9L153 311.9L127 272.1Z" fill="#00101c" stroke="#00101c"></path><path d="M80 293.9L151 411.6L153 311.9Z" fill="#171b21" stroke="#171b21"></path><path d="M225 432.6L289 550.3L404 496.3Z" fill="#191c22" stroke="#191c22"></path><path d="M166 502.3L289 550.3L225 432.6Z" fill="#0f171f" stroke="#0f171f"></path><path d="M390 600L445 600L428 563.3Z" fill="#0f171f" stroke="#0f171f"></path><path d="M428 563.3L445 600L554 531.3Z" fill="#0c151e" stroke="#0c151e"></path><path d="M135 104.7L0 149.4L112 195.4Z" fill="#141921" stroke="#141921"></path><path d="M274 0L147 0L242 114.7Z" fill="#191c22" stroke="#191c22"></path><path d="M289 550.3L390 600L404 496.3Z" fill="#1b1e22" stroke="#1b1e22"></path><path d="M445 600L561 600L554 531.3Z" fill="#171b21" stroke="#171b21"></path><path d="M112 195.4L80 293.9L127 272.1Z" fill="#0c151e" stroke="#0c151e"></path><path d="M0 292.1L80 293.9L112 195.4Z" fill="#00101c" stroke="#00101c"></path><path d="M900 176.4L764 149.4L776 226.1Z" fill="#171b21" stroke="#171b21"></path><path d="M80 293.9L127 429.6L151 411.6Z" fill="#0c151e" stroke="#0c151e"></path><path d="M151 411.6L166 502.3L225 432.6Z" fill="#1d1f23" stroke="#1d1f23"></path><path d="M561 600L625 600L554 531.3Z" fill="#08131e" stroke="#08131e"></path><path d="M828 474.3L843 429.6L745 397.6Z" fill="#08131e" stroke="#08131e"></path><path d="M147 0L111 0L135 104.7Z" fill="#141921" stroke="#141921"></path><path d="M127 429.6L166 502.3L151 411.6Z" fill="#121820" stroke="#121820"></path><path d="M289 550.3L241 600L390 600Z" fill="#141921" stroke="#141921"></path><path d="M819 307.9L900 176.4L776 226.1Z" fill="#0c151e" stroke="#0c151e"></path><path d="M828 474.3L745 397.6L680 507.3Z" fill="#0f171f" stroke="#0f171f"></path><path d="M819 307.9L900 300.9L900 176.4Z" fill="#0c151e" stroke="#0c151e"></path><path d="M900 306.1L900 300.9L819 307.9Z" fill="#121820" stroke="#121820"></path><path d="M843 429.6L900 306.1L819 307.9Z" fill="#04121d" stroke="#04121d"></path><path d="M745 600L828 474.3L680 507.3Z" fill="#191c22" stroke="#191c22"></path><path d="M843 429.6L900 456.6L900 306.1Z" fill="#08131e" stroke="#08131e"></path><path d="M111 0L61 59.7L135 104.7Z" fill="#00101c" stroke="#00101c"></path><path d="M900 176.4L900 88.7L764 149.4Z" fill="#171b21" stroke="#171b21"></path><path d="M166 502.3L241 600L289 550.3Z" fill="#121820" stroke="#121820"></path><path d="M127 429.6L105 492.3L166 502.3Z" fill="#08131e" stroke="#08131e"></path><path d="M166 502.3L142 600L241 600Z" fill="#1d1f23" stroke="#1d1f23"></path><path d="M0 378.6L105 492.3L127 429.6Z" fill="#04121d" stroke="#04121d"></path><path d="M625 600L745 600L680 507.3Z" fill="#0f171f" stroke="#0f171f"></path><path d="M900 88.7L900 0L843 35.7Z" fill="#171b21" stroke="#171b21"></path><path d="M843 35.7L900 0L776 0Z" fill="#1b1e22" stroke="#1b1e22"></path><path d="M61 59.7L0 149.4L135 104.7Z" fill="#04121d" stroke="#04121d"></path><path d="M80 293.9L0 378.6L127 429.6Z" fill="#191c22" stroke="#191c22"></path><path d="M0 149.4L0 292.1L112 195.4Z" fill="#141921" stroke="#141921"></path><path d="M900 537.3L900 456.6L828 474.3Z" fill="#121820" stroke="#121820"></path><path d="M828 474.3L900 456.6L843 429.6Z" fill="#0c151e" stroke="#0c151e"></path><path d="M0 292.1L0 347.9L80 293.9Z" fill="#1d1f23" stroke="#1d1f23"></path><path d="M61 59.7L0 52.7L0 149.4Z" fill="#0f171f" stroke="#0f171f"></path><path d="M0 0L0 52.7L61 59.7Z" fill="#121820" stroke="#121820"></path><path d="M0 347.9L0 378.6L80 293.9Z" fill="#141921" stroke="#141921"></path><path d="M745 600L798 600L828 474.3Z" fill="#141921" stroke="#141921"></path><path d="M53 600L142 600L105 492.3Z" fill="#191c22" stroke="#191c22"></path><path d="M105 492.3L142 600L166 502.3Z" fill="#1d1f23" stroke="#1d1f23"></path><path d="M111 0L0 0L61 59.7Z" fill="#171b21" stroke="#171b21"></path><path d="M798 600L900 537.3L828 474.3Z" fill="#04121d" stroke="#04121d"></path><path d="M0 544.3L53 600L105 492.3Z" fill="#08131e" stroke="#08131e"></path><path d="M798 600L900 600L900 537.3Z" fill="#1d1f23" stroke="#1d1f23"></path><path d="M0 378.6L0 544.3L105 492.3Z" fill="#171b21" stroke="#171b21"></path><path d="M0 544.3L0 600L53 600Z" fill="#171b21" stroke="#171b21"></path></g></svg>