<svg id="visual" viewBox="0 0 900 600" width="900" height="600" xmlns="http://www.w3.org/2000/svg" xmlns:xlink="http://www.w3.org/1999/xlink" version="1.1"><rect x="0" y="0" width="900" height="600" fill="#001220"></rect><path d="M0 384L21.5 382.2C43 380.3 86 376.7 128.8 378.7C171.7 380.7 214.3 388.3 257.2 400C300 411.7 343 427.3 385.8 426.5C428.7 425.7 471.3 408.3 514.2 396.2C557 384 600 377 642.8 373.8C685.7 370.7 728.3 371.3 771.2 382.5C814 393.7 857 415.3 878.5 426.2L900 437L900 601L878.5 601C857 601 814 601 771.2 601C728.3 601 685.7 601 642.8 601C600 601 557 601 514.2 601C471.3 601 428.7 601 385.8 601C343 601 300 601 257.2 601C214.3 601 171.7 601 128.8 601C86 601 43 601 21.5 601L0 601Z" fill="#fa7268"></path><path d="M0 413L21.5 418.8C43 424.7 86 436.3 128.8 444.5C171.7 452.7 214.3 457.3 257.2 459.3C300 461.3 343 460.7 385.8 451C428.7 441.3 471.3 422.7 514.2 416.2C557 409.7 600 415.3 642.8 428C685.7 440.7 728.3 460.3 771.2 469.2C814 478 857 476 878.5 475L900 474L900 601L878.5 601C857 601 814 601 771.2 601C728.3 601 685.7 601 642.8 601C600 601 557 601 514.2 601C471.3 601 428.7 601 385.8 601C343 601 300 601 257.2 601C214.3 601 171.7 601 128.8 601C86 601 43 601 21.5 601L0 601Z" fill="#ef5f67"></path><path d="M0 506L21.5 499C43 492 86 478 128.8 467.2C171.7 456.3 214.3 448.7 257.2 447.5C300 446.3 343 451.7 385.8 458.5C428.7 465.3 471.3 473.7 514.2 477C557 480.3 600 478.7 642.8 474.7C685.7 470.7 728.3 464.3 771.2 468.5C814 472.7 857 487.3 878.5 494.7L900 502L900 601L878.5 601C857 601 814 601 771.2 601C728.3 601 685.7 601 642.8 601C600 601 557 601 514.2 601C471.3 601 428.7 601 385.8 601C343 601 300 601 257.2 601C214.3 601 171.7 601 128.8 601C86 601 43 601 21.5 601L0 601Z" fill="#e34c67"></path><path d="M0 505L21.5 504.2C43 503.3 86 501.7 128.8 501C171.7 500.3 214.3 500.7 257.2 502.8C300 505 343 509 385.8 514.7C428.7 520.3 471.3 527.7 514.2 526.5C557 525.3 600 515.7 642.8 508C685.7 500.3 728.3 494.7 771.2 494.5C814 494.3 857 499.7 878.5 502.3L900 505L900 601L878.5 601C857 601 814 601 771.2 601C728.3 601 685.7 601 642.8 601C600 601 557 601 514.2 601C471.3 601 428.7 601 385.8 601C343 601 300 601 257.2 601C214.3 601 171.7 601 128.8 601C86 601 43 601 21.5 601L0 601Z" fill="#d53867"></path><path d="M0 564L21.5 562.7C43 561.3 86 558.7 128.8 557.8C171.7 557 214.3 558 257.2 555.3C300 552.7 343 546.3 385.8 542.7C428.7 539 471.3 538 514.2 541.5C557 545 600 553 642.8 557.3C685.7 561.7 728.3 562.3 771.2 564.2C814 566 857 569 878.5 570.5L900 572L900 601L878.5 601C857 601 814 601 771.2 601C728.3 601 685.7 601 642.8 601C600 601 557 601 514.2 601C471.3 601 428.7 601 385.8 601C343 601 300 601 257.2 601C214.3 601 171.7 601 128.8 601C86 601 43 601 21.5 601L0 601Z" fill="#c62368"></path></svg>