<svg id="visual" viewBox="0 0 900 600" width="900" height="600" xmlns="http://www.w3.org/2000/svg" xmlns:xlink="http://www.w3.org/1999/xlink" version="1.1"><path d="M0 103L82 103L82 199L164 199L164 181L245 181L245 163L327 163L327 169L409 169L409 229L491 229L491 241L573 241L573 139L655 139L655 151L736 151L736 157L818 157L818 169L900 169L900 85L900 0L900 0L818 0L818 0L736 0L736 0L655 0L655 0L573 0L573 0L491 0L491 0L409 0L409 0L327 0L327 0L245 0L245 0L164 0L164 0L82 0L82 0L0 0Z" fill="#fa7268"></path><path d="M0 157L82 157L82 289L164 289L164 301L245 301L245 229L327 229L327 265L409 265L409 355L491 355L491 361L573 361L573 223L655 223L655 265L736 265L736 217L818 217L818 253L900 253L900 127L900 83L900 167L818 167L818 155L736 155L736 149L655 149L655 137L573 137L573 239L491 239L491 227L409 227L409 167L327 167L327 161L245 161L245 179L164 179L164 197L82 197L82 101L0 101Z" fill="#ea5e66"></path><path d="M0 325L82 325L82 343L164 343L164 403L245 403L245 313L327 313L327 391L409 391L409 457L491 457L491 433L573 433L573 349L655 349L655 409L736 409L736 391L818 391L818 385L900 385L900 283L900 125L900 251L818 251L818 215L736 215L736 263L655 263L655 221L573 221L573 359L491 359L491 353L409 353L409 263L327 263L327 227L245 227L245 299L164 299L164 287L82 287L82 155L0 155Z" fill="#d84a64"></path><path d="M0 541L82 541L82 541L164 541L164 517L245 517L245 535L327 535L327 541L409 541L409 565L491 565L491 523L573 523L573 547L655 547L655 547L736 547L736 559L818 559L818 565L900 565L900 499L900 281L900 383L818 383L818 389L736 389L736 407L655 407L655 347L573 347L573 431L491 431L491 455L409 455L409 389L327 389L327 311L245 311L245 401L164 401L164 341L82 341L82 323L0 323Z" fill="#c53762"></path><path d="M0 601L82 601L82 601L164 601L164 601L245 601L245 601L327 601L327 601L409 601L409 601L491 601L491 601L573 601L573 601L655 601L655 601L736 601L736 601L818 601L818 601L900 601L900 601L900 497L900 563L818 563L818 557L736 557L736 545L655 545L655 545L573 545L573 521L491 521L491 563L409 563L409 539L327 539L327 533L245 533L245 515L164 515L164 539L82 539L82 539L0 539Z" fill="#b0235f"></path></svg>